<svg width="1799" height="1313" viewBox="0 0 1799 1313" fill="none" xmlns="http://www.w3.org/2000/svg">
<g id="Frame 3" clip-path="url(#clip0)">
<path id="line1" d="M531.712 243C391.212 365.5 426.212 618 531.712 653C637.212 688 717.212 887.499 531.712 1112" stroke="black"/>
<path id="line2" d="M730.195 458.036C633.541 603.625 739.601 792.602 848.961 784.344C958.322 776.086 1091.35 907.477 981.922 1149.65" stroke="black"/>
<path id="line3" d="M1285.36 364.395C1080.97 437.164 941.039 749.597 1008.88 843.271C1076.72 936.945 1011.53 1209.99 699.359 1379.38" stroke="black"/>
<g id="fuma2" opacity="0.1" filter="url(#filter0_f)">
<path d="M1262.53 470.468C1322.6 750.367 1260.22 1232.86 1202.47 958.292C1144.71 683.724 1147.02 707.716 1174.74 627.745C1202.47 547.773 1043.05 321.188 851.296 273.205C659.539 225.222 832.813 -84 832.813 -84C832.813 -84 1202.47 190.568 1262.53 470.468Z" fill="#31E87B"/>
<path d="M1262.53 470.468C1322.6 750.367 1260.22 1232.86 1202.47 958.292C1144.71 683.724 1147.02 707.716 1174.74 627.745C1202.47 547.773 1043.05 321.188 851.296 273.205C659.539 225.222 832.813 -84 832.813 -84C832.813 -84 1202.47 190.568 1262.53 470.468Z" stroke="#31E87B"/>
</g>
<g id="fuma1" opacity="0.25" filter="url(#filter1_f)">
<path d="M404.282 978.791C601.481 817.257 484.875 790.125 536.515 669.236C536.515 669.236 384.6 537.247 277.947 532.374C171.293 527.502 581.314 227.892 581.314 227.892C581.314 227.892 333.926 499.856 444.453 526.693C554.979 553.53 540.23 819.879 701.133 732.425C862.037 644.971 591.173 880.271 465.585 996.535C416.934 1041.57 475.52 1093.47 565.559 1140.14C584.62 1141.08 596.872 1141.11 596.872 1141.11L608.905 1161.2C748.721 1225.17 929 1274.73 929 1274.73L709.977 1282.57L684.326 1287.09L608.905 1161.2C593.899 1154.33 579.36 1147.3 565.559 1140.14C477.109 1135.78 242.044 1111.69 404.282 978.791Z" fill="#31E87B"/>
<path d="M404.282 978.791C601.481 817.257 484.875 790.125 536.515 669.236C536.515 669.236 384.6 537.247 277.947 532.374C171.293 527.502 581.314 227.892 581.314 227.892C581.314 227.892 333.926 499.856 444.453 526.693C554.979 553.53 540.23 819.879 701.133 732.425C862.037 644.971 591.173 880.271 465.585 996.535C416.934 1041.57 475.52 1093.47 565.559 1140.14C584.62 1141.08 596.872 1141.11 596.872 1141.11L608.905 1161.2C748.721 1225.17 929 1274.73 929 1274.73L709.977 1282.57L684.326 1287.09L608.905 1161.2C593.899 1154.33 579.36 1147.3 565.559 1140.14C477.109 1135.78 242.044 1111.69 404.282 978.791Z" stroke="#31E87B"/>
</g>
</g>
<defs>
<filter id="filter0_f" x="700.5" y="-144.74" width="647" height="1245.24" filterUnits="userSpaceOnUse" color-interpolation-filters="sRGB">
<feFlood flood-opacity="0" result="BackgroundImageFix"/>
<feBlend mode="normal" in="SourceGraphic" in2="BackgroundImageFix" result="shape"/>
<feGaussianBlur stdDeviation="30" result="effect1_foregroundBlur"/>
</filter>
<filter id="filter1_f" x="145.429" y="132.521" width="850.868" height="1302.62" filterUnits="userSpaceOnUse" color-interpolation-filters="sRGB">
<feFlood flood-opacity="0" result="BackgroundImageFix"/>
<feBlend mode="normal" in="SourceGraphic" in2="BackgroundImageFix" result="shape"/>
<feGaussianBlur stdDeviation="33.5" result="effect1_foregroundBlur"/>
</filter>
<clipPath id="clip0">
<rect width="1799" height="1313" fill="white"/>
</clipPath>
</defs>
</svg>
